<?xml version="1.0" encoding="UTF-8"?><svg xmlns="http://www.w3.org/2000/svg" viewBox="0 0 109.78 133.71"><defs><style>.d{fill:#bdb2ff;}.e{fill:#c68225;}</style></defs><g id="a"/><g id="b"><g id="c"><g><path class="d" d="M97.33,131.21c-1.82,0-3.63-.52-5.21-1.5l-.17-.1-33.82-29.16c-.96-.67-2.07-1.02-3.24-1.02s-2.29,.35-3.24,1.02l-33.82,29.16-.17,.1c-1.58,.98-3.39,1.5-5.21,1.5-2.54,0-5.05-1.01-6.91-2.78-1.96-1.88-3.04-4.42-3.04-7.16V23.06C2.5,11.72,11.72,2.5,23.06,2.5h63.66c11.34,0,20.56,9.22,20.56,20.56V121.27c0,5.48-4.46,9.95-9.95,9.95Z"/><path class="e" d="M86.72,5c9.97,0,18.06,8.09,18.06,18.06V121.27c0,4.35-3.58,7.45-7.45,7.45-1.31,0-2.65-.35-3.89-1.12l-33.76-29.1c-1.43-1.03-3.11-1.55-4.79-1.55s-3.36,.52-4.79,1.55l-33.76,29.1c-1.25,.77-2.59,1.12-3.89,1.12-3.87,0-7.45-3.09-7.45-7.45V23.06C5,13.09,13.09,5,23.06,5h63.66m0-5H23.06C10.34,0,0,10.34,0,23.06V121.27c0,6.86,5.58,12.45,12.45,12.45,2.29,0,4.55-.65,6.52-1.87l.34-.21,.3-.26,33.56-28.93c.51-.33,1.1-.51,1.72-.51s1.21,.17,1.72,.51l33.56,28.93,.3,.26,.34,.21c1.98,1.22,4.24,1.87,6.52,1.87,6.86,0,12.45-5.58,12.45-12.45V23.06c0-12.71-10.34-23.06-23.06-23.06h0Z"/></g></g></g></svg>