<?xml version="1.0" encoding="UTF-8"?><svg xmlns="http://www.w3.org/2000/svg" viewBox="0 0 103.78 127.71"><defs><style>.d{fill:#bdb2ff;}.e{fill:#c68225;}</style></defs><g id="a"/><g id="b"><g id="c"><g><path class="d" d="M94.33,126.71c-1.54,0-3.07-.44-4.42-1.27l-.07-.04-33.82-29.16c-1.16-.84-2.61-1.31-4.13-1.31s-2.97,.47-4.2,1.36L13.94,125.4l-.07,.04c-1.35,.83-2.88,1.27-4.42,1.27-2.16,0-4.29-.86-5.87-2.37-1.66-1.59-2.58-3.75-2.58-6.08V20.06C1,9.55,9.55,1,20.06,1h63.66c10.51,0,19.06,8.55,19.06,19.06V118.27c0,4.66-3.79,8.45-8.45,8.45Z"/><path class="e" d="M83.72,2c9.97,0,18.06,8.09,18.06,18.06V118.27c0,4.35-3.58,7.45-7.45,7.45-1.31,0-2.65-.35-3.89-1.12l-33.76-29.1c-1.43-1.03-3.11-1.55-4.79-1.55s-3.36,.52-4.79,1.55L13.34,124.59c-1.25,.77-2.59,1.12-3.89,1.12-3.87,0-7.45-3.09-7.45-7.45V20.06C2,10.09,10.09,2,20.06,2h63.66m0-2H20.06C9,0,0,9,0,20.06V118.27c0,5.21,4.24,9.45,9.45,9.45,1.73,0,3.44-.49,4.95-1.42l.13-.08,.12-.1,33.69-29.04c1.04-.74,2.27-1.12,3.55-1.12s2.5,.39,3.55,1.12l33.69,29.04,.12,.1,.13,.08c1.5,.93,3.21,1.42,4.95,1.42,5.21,0,9.45-4.24,9.45-9.45V20.06c0-11.06-9-20.06-20.06-20.06h0Z"/></g></g></g></svg>