<?xml version="1.0" encoding="UTF-8"?><svg xmlns="http://www.w3.org/2000/svg" viewBox="0 0 119.69 119.72"><defs><style>.d{fill:#c68225;}</style></defs><g id="a"/><g id="b"><g id="c"><path class="d" d="M113.13,0H6.59C2.95,0,0,2.95,0,6.59V113.13c0,3.64,2.95,6.59,6.59,6.59H63.95v-46.36h-15.69v-18.03h15.61v-13.34c0-15.45,9.43-23.88,23.18-23.88,4.65-.02,9.31,.22,13.93,.72v16.15h-9.56c-7.52,0-8.96,3.58-8.96,8.81v11.54h17.9l-2.34,18.03h-15.45v46.36h30.52c3.64,0,6.59-2.95,6.59-6.59V6.59c0-3.63-2.94-6.58-6.57-6.59h0Z"/></g></g></svg>