<?xml version="1.0" encoding="UTF-8"?><svg xmlns="http://www.w3.org/2000/svg" viewBox="0 0 112.27 128.62"><defs><style>.d{fill:#caffbf;}.e{fill:#c68225;}</style></defs><g id="a"/><g id="b"><g id="c"><g><polygon class="d" points="2.42 6.78 84.82 6.78 92.96 15.93 92.96 35.77 95.25 38.31 102.11 38.31 109.49 43.91 104.4 55.86 75.93 86.38 58.37 108.43 54.04 113.01 27.96 127.3 29.51 117.89 2.42 115.63 2.42 6.78"/><path class="e" d="M108.43,37.96c-3.4-3.13-8.14-3.88-12.18-2.37V13.88l-11.15-9.34h-6V0h-5.98V4.54h-8.52V0h-5.98V4.54h-8.52V0h-5.98V4.54h-8.52V0h-5.98V4.54h-8.52V0h-5.98V4.54H0V117.89H29.51l-4.22,10.73,11.35-5.64,10.24-5.09,7.89-3.92h.03l1.88-2.06,33.58-36.62,5.98-6.52,12.91-14.08c2.21-2.41,3.24-5.49,3.1-8.52-.13-3.03-1.41-6.01-3.83-8.22ZM5.98,111.91V10.52H15.13v7.67h5.98v-7.67h8.52v7.67h5.98v-7.67h8.52v7.67h5.98v-7.67h8.52v7.67h5.98v-7.67h8.52v7.67h5.98v-7.67h3.83l7.34,6.14v23.56l-52.92,57.72v.02h-.02v.02l-5.47,13.93H5.98Zm48.06,1.1l-9.82,4.88-6.96,3.46c-.57-1.24-1.37-2.32-2.35-3.23l-.26-.23c-.93-.79-1.99-1.41-3.16-1.83l1.63-4.15,5.21-13.28c4.06-4.05,10.48-4.19,14.72-.31,2.1,1.93,3.32,4.56,3.44,7.41,.1,2.2-.48,4.36-1.66,6.18-.24,.38-.51,.75-.8,1.1Zm50.32-62.72l-8.12,8.85-5.98,6.52-28.6,31.19c-.91-1.53-2.05-2.95-3.41-4.19-1.35-1.24-2.85-2.26-4.47-3.03l36.48-39.78,5.98-6.52,.24-.26c1.99-2.18,5.37-2.32,7.55-.32,1.05,.97,1.67,2.27,1.73,3.72,.06,1.42-.44,2.78-1.4,3.83Z"/></g></g></g></svg>