<?xml version="1.0" encoding="UTF-8"?><svg xmlns="http://www.w3.org/2000/svg" viewBox="0 0 116.27 134.72"><defs><style>.d{fill:#caffbf;}.e{fill:#c68225;}</style></defs><g id="a"/><g id="b"><g id="c"><g><path class="d" d="M30.04,120.89H1V5.54h15.13V1h7.98V5.54h6.52V1h7.98V5.54h6.52V1h7.98V5.54h6.52V1h7.98V5.54h6.52V1h7.98V5.54h5.36l11.79,9.87v20.81c1.03-.26,2.09-.39,3.17-.39,3.23,0,6.31,1.2,8.69,3.38,2.53,2.31,4,5.47,4.15,8.91,.16,3.42-1.04,6.71-3.36,9.24l-54.52,59.46-.2,.07-31.76,15.78,4.63-11.78Zm4.75-3.38c.91,.42,1.75,.97,2.52,1.62l.27,.24c.85,.79,1.55,1.67,2.12,2.64l15.71-7.81c.23-.29,.42-.56,.59-.83,1.08-1.67,1.6-3.6,1.51-5.6-.11-2.58-1.22-4.97-3.12-6.72-1.8-1.65-4.12-2.56-6.52-2.56s-4.85,.96-6.67,2.7l-6.41,16.31Zm-1.61-4.6l5.15-13.12v-.22l.22-.22,52.72-57.5V19.13l-6.7-5.61h-2.46v7.67h-7.98v-7.67h-6.52v7.67h-7.98v-7.67h-6.52v7.67h-7.98v-7.67h-6.52v7.67h-7.98v-7.67h-6.52v7.67h-7.98v-7.67h-7.15V112.91h24.2Zm24.23-21.56c1.26,.72,2.45,1.58,3.53,2.58,1.08,.99,2.05,2.09,2.87,3.29l41.82-45.6c.78-.85,1.19-1.96,1.14-3.11-.05-1.16-.55-2.23-1.4-3.02-.81-.74-1.85-1.14-2.94-1.14-1.21,0-2.38,.51-3.19,1.4l-41.82,45.6Z"/><path class="e" d="M81.1,2V6.54h6l11.15,9.34v21.71c1.34-.5,2.75-.75,4.17-.75,2.86,0,5.74,1.03,8.01,3.12,2.42,2.2,3.7,5.19,3.83,8.22,.14,3.02-.89,6.11-3.1,8.52l-12.91,14.08-5.98,6.52-33.58,36.62-1.88,2.05h-.03l-7.89,3.93-10.24,5.09-11.35,5.64,4.22-10.73H2V6.54h15.13V2h5.98V6.54h8.52V2h5.98V6.54h8.52V2h5.98V6.54h8.52V2h5.98V6.54h8.52V2h5.98m-5.98,18.2v-7.67h-8.52v7.67h-5.98v-7.67h-8.52v7.67h-5.98v-7.67h-8.52v7.67h-5.98v-7.67h-8.52v7.67h-5.98v-7.67H7.98V113.91h25.88l5.47-13.93h0v-.02l.02-.02,52.92-57.72V18.67l-7.34-6.14h-3.83v7.67h-5.98m-11.46,78.66l28.6-31.19,5.98-6.52,8.12-8.85c.97-1.05,1.46-2.41,1.4-3.83-.06-1.44-.67-2.75-1.73-3.72-1.03-.94-2.33-1.41-3.62-1.41-1.44,0-2.88,.58-3.93,1.73l-.24,.26-5.98,6.52-36.48,39.78c1.61,.78,3.12,1.79,4.47,3.03,1.36,1.24,2.5,2.66,3.41,4.19m-24.4,24.5l6.96-3.46,9.82-4.88c.29-.35,.56-.72,.8-1.1,1.18-1.82,1.76-3.97,1.66-6.18-.12-2.84-1.34-5.48-3.44-7.41-2.06-1.89-4.63-2.82-7.2-2.82-2.72,0-5.43,1.05-7.52,3.13l-5.21,13.28-1.63,4.15c1.17,.42,2.23,1.03,3.16,1.83l.26,.23c.98,.91,1.78,1.99,2.35,3.23M83.1,0h-9.98V4.54h-4.52V0h-9.98V4.54h-4.52V0h-9.98V4.54h-4.52V0h-9.98V4.54h-4.52V0H15.13V4.54H0V121.89H28.57l-3.15,8-1.9,4.83,4.65-2.31,11.35-5.64,10.24-5.09,7.77-3.86,.36-.12,.38-.39,1.88-2.05,33.58-36.62,5.98-6.52,12.91-14.08c2.5-2.73,3.79-6.26,3.62-9.96-.16-3.7-1.75-7.12-4.48-9.61-2.55-2.35-5.88-3.64-9.36-3.64-.73,0-1.46,.06-2.17,.17V14.95l-.72-.6-11.15-9.34-.56-.47h-4.72V0h0Zm0,14.52h1.1l6.06,5.08v21.85l-52.4,57.14-.07,.07-.47,.47v.46l-4.84,12.32H9.98V14.52h5.15v7.67h9.98v-7.67h4.52v7.67h9.98v-7.67h4.52v7.67h9.98v-7.67h4.52v7.67h9.98v-7.67h4.52v7.67h9.98v-7.67h0Zm-24.14,76.61l34.78-37.92,5.98-6.52,.25-.28c.63-.69,1.5-1.07,2.45-1.07,.84,0,1.65,.31,2.27,.88,.67,.61,1.04,1.42,1.08,2.32,.04,.89-.27,1.74-.88,2.39l-8.12,8.85-5.98,6.52-26.9,29.34c-.69-.88-1.45-1.7-2.29-2.46-.83-.76-1.71-1.45-2.64-2.06h0Zm-16.92,10.65c1.61-1.47,3.66-2.27,5.82-2.27,2.16,0,4.23,.82,5.85,2.3,1.71,1.57,2.7,3.7,2.8,6.02,.08,1.8-.38,3.53-1.34,5.01-.13,.2-.26,.4-.41,.6l-9.42,4.68-5.28,2.62c-.51-.75-1.11-1.44-1.78-2.06l-.28-.25-.02-.02-.02-.02c-.59-.51-1.23-.95-1.91-1.33l.94-2.39,5.05-12.87h0Z"/></g></g></g></svg>