<?xml version="1.0" encoding="UTF-8"?><svg xmlns="http://www.w3.org/2000/svg" viewBox="0 0 1090.63 312.75"><defs><style>.d{fill:#fff;}.e{fill:#fcfbfa;}.f{fill:#383838;}</style></defs><g id="a"/><g id="b"><g id="c"><g><g><rect class="f" x="3" y="3" width="1084.63" height="306.76" rx="39.52" ry="39.52"/><path class="d" d="M1048.11,6c20.13,0,36.52,16.38,36.52,36.52v227.72c0,20.13-16.38,36.52-36.52,36.52H42.52c-20.13,0-36.52-16.38-36.52-36.52V42.52C6,22.38,22.38,6,42.52,6h1005.6m0-6H42.52C19.03,0,0,19.03,0,42.52v227.72c0,23.48,19.03,42.52,42.52,42.52h1005.6c23.48,0,42.52-19.03,42.52-42.52V42.52c0-23.48-19.03-42.52-42.52-42.52h0Z"/></g><g><path class="e" d="M92.33,120.25c9.57,8.05,31.15,10.36,43.5,11.01,.29,.02,.36-.45,.06-.5-10.65-2.6-21.34-5.04-31.46-9.1-13.6-5.39-13.1-11.22,1.86-11.19,8.8,.1,17.95,1.78,26.52,4.24,5.22,1.68,10.63,3.23,15.9,4.69,17.77,4.79,35.66,9.54,53.98,11.67,.49,.04,.98,.08,1.47,.12-12.07,3.5-32.83,3.4-40.06,3.65-.3,0-.34,.44-.04,.5,8.53,1.33,17.16,1.96,25.86,1.83,6.6-.17,13.37-.6,19.73-2.89,3.72-1.34,8.08-4.18,8.21-8.65-.3-7.12-12.39-13.86-18.24-16.38-4.13-1.64-8.2-2.9-12.06-4.5-2.74-1.22-5.4-2.18-7.24-4.46-4.32-5.85-6.51-14.77-14.01-18.1-8.32-4.09-12.65-.92-18.89,4.59-4.79,4.14-9.9,7.81-16.1,9.06-8.4,1.61-17.3,.68-25.54,3.47-3.51,1.5-10.41,5.1-13.3,9.12-.37,.29-.74,.6-1.09,.94-3.04,3.26-2.25,8.16,.94,10.86Zm13.88-19.77c8.22-2.41,17.03-1.14,25.5-2.46,6.62-1.03,12.52-4.93,17.51-9.04,5.45-4.37,8.67-7.48,15.55-3.75,8.08,4.06,8.13,14.92,15.02,20.24,5.54,3.77,12.07,5.65,17.9,8.3,3.46,1.46,15.11,8.52,15.02,12.2-.91,1.87-3.18,3.33-6.28,4.48-1.22-.14-2.44-.31-3.61-.43-10.87-1.64-21.5-4.55-32.09-7.49-10.59-2.96-21.12-6.15-31.54-9.64-10.57-3.83-21.48-6.68-32.76-7.37-3.9-.08-8.25-.12-11.87,1.63,3.34-3.01,8.7-5.52,11.66-6.67Z"/><path class="e" d="M159.07,145.31c.14-2.49,.93-4.91,1.51-7.38,.9-3.41,1.83-6.83,2.77-10.24,.09-.3-.37-.43-.47-.16-1.36,3.25-2.68,6.51-3.9,9.81-1.22,3.3-2.51,6.71-2.55,10.27-.18,7.08,1.12,14.05,1.97,21.03,.77,7.99,4.03,24.88-5.17,28.71-13.29,5.91-19.66,1.16-18.02-13.22,1.06-6.91,3.66-13.52,5.92-20.12,2.24-6.66,4.93-13.33,5.28-20.45,.09-6.94-.7-14.24,2.96-20.47,.16-.28-.26-.51-.43-.26-2.09,2.96-3.59,6.32-4.14,10.09-.56,3.59-.64,7.19-1.04,10.56-.86,6.55-3.93,12.95-6.35,19.22-4.03,10.38-9.6,21.71-6.19,33.22,1.56,5.26,6.18,8.87,11.96,8.85,5.8-.02,13.73-2.44,17.38-7.14,7.09-10.03,1.56-28.59-.19-39.84-.77-4.23-1.47-8.31-1.33-12.47Z"/><path class="e" d="M227.95,29.01H75.91c-.57-.06-1.15-.09-1.74-.09-9.69,0-17.57,7.89-17.57,17.59v220.29s0,.05,0,.07c0,9.7,7.88,17.59,17.57,17.59H227.95c1.93,0,3.5-1.57,3.5-3.5V32.51c0-1.93-1.57-3.5-3.5-3.5Zm-3.5,220.27H77.67V36.01H224.45V249.28ZM63.6,46.51c0-4.61,2.96-8.55,7.07-10V249.63h0c-.61,.13-1.21,.29-1.8,.48-.19,.06-.37,.14-.55,.2-.4,.14-.79,.29-1.17,.46-.21,.09-.42,.2-.63,.3-.34,.17-.68,.34-1.01,.53-.21,.12-.42,.25-.62,.38-.31,.2-.62,.41-.92,.62-.11,.08-.24,.15-.35,.24V46.51Zm160.84,230.96H74.17c-5.8,0-10.52-4.7-10.57-10.51,0-.05,0-.1,0-.16,0-1.09,.18-2.14,.49-3.13,1.36-4.28,5.37-7.4,10.07-7.4H224.45v21.19Z"/><path class="e" d="M319.38,228.26c-4.13-.29-6.55-1-6.55-3.27,0-6.98,19.22-10.82,19.22-29.47,0-8.68-6.55-15.94-16.37-15.94-12.1,0-15.8,4.56-28.05,4.56s-18.51-3.84-25.77-3.84c-2.28,0-4.13,1.57-4.13,4.27,0,7.4,12.24,12.96,12.24,31.6,0,16.8-13.24,41.71-13.24,49.83,0,4.41,2.28,5.55,5.41,5.55,6.69,0,13.67-2.42,25.77-2.42,8.54,0,24.91,2.42,31.6,2.42,14.38,0,20.36-7.97,20.36-23.77s-7.97-18.65-20.5-19.5Zm-27.33-37.44c10.96,0,16.37,6.26,16.37,17.8,0,8.83-3.7,13.81-12.1,13.81-15.66,0-20.36-12.39-20.36-19.36s4.7-12.24,16.09-12.24Zm8.97,70.04c-19.36,0-27.62-9.25-27.62-18.37,0-8.26,5.98-13.1,17.65-13.1,18.08,0,25.48,7.12,25.48,16.23,0,10.82-5.27,15.23-15.52,15.23Z"/><path class="e" d="M397.25,193.67c-5.27,0-7.54,.85-14.09,13.24-4.56,8.68-7.54,9.68-11.96,9.68-1.99,0-2.85-1.42-2.85-3.42,0-3.84,1.99-10.11,1.99-13.95,0-3.27-1.42-5.27-4.13-5.27-2.14,0-4.56,.28-7.26,.28-2.85,0-7.26-.28-9.11-.28-2.28,0-4.7,1.57-4.7,4.84,0,7.26,16.09,18.93,16.09,32.32,0,10.11-14.66,25.48-14.66,35.73,0,2.99,1.99,4.56,4.7,4.56,4.27,0,8.11-.71,13.52-.71,6.12,0,11.53,.71,18.65,.71,2.85,0,4.13-2.56,4.13-5.27,0-8.4-18.93-20.93-18.93-34.59,0-3.99,2.56-9.4,10.54-9.4,6.26,0,12.96,1.99,16.51,1.99,4.7,0,5.27-3.84,5.27-8.68s1.85-12.67,1.85-16.66c0-4.84-.85-5.12-5.55-5.12Z"/><path class="e" d="M437.82,171.03c0-2.56-1.42-4.13-4.84-4.13-1.71,0-4.27,.14-7.55,.14-7.97,0-11.67-1.85-13.81-1.85-3.42,0-4.7,1.85-4.7,3.84,0,5.69,7.69,15.38,14.52,15.38s16.37-6.69,16.37-13.38Z"/><path class="e" d="M436.4,197.8c0-3.56-1.42-5.55-5.27-5.55-2.71,0-5.41,1.57-14.52,2.42-10.39,1-11.53,1.85-11.53,5.27,0,6.26,16.8,20.64,16.8,35.59,0,12.1-14.66,24.63-14.66,31.32,0,2.99,1.57,4.27,5.41,4.27,2.14,0,8.83-.43,14.24-.43,4.13,0,9.25,.43,10.54,.43,2.99,0,4.56-1.57,4.56-5.12,0-5.27-12.81-17.94-12.81-30.47,0-19.08,7.26-32.89,7.26-37.73Z"/><path class="e" d="M488.93,253.6c-1.14,0-2.42,.28-5.12,.28-9.54,0-12.53-9.11-12.53-40.72,0-3.7,1.71-5.12,4.55-5.12,2.42,0,6.41,1.42,9.68,1.42,4.7,0,5.98-2.42,5.98-10.25,0-3.99-1.42-5.27-5.98-5.27-1.99,0-7.26,.28-12.81,.28-2.42,0-3.7-.71-3.7-3.27,0-3.27,2.28-8.97,2.28-12.53,0-1.99-1-3.84-3.7-3.84-3.13,0-4.84,2.28-9.11,11.1-5.84,12.1-11.39,14.95-11.39,20.5,0,1.28,1.42,2.56,4.27,2.56,1.85,0,5.27-.43,6.98-.43,3.56,0,4.7,.71,4.7,8.26,0,21.07-9.82,32.32-9.82,45.27,0,7.55,6.69,10.54,17.08,10.54,15.66,0,22.49-9.25,22.49-14.52,0-1.85-.71-4.27-3.84-4.27Z"/><path class="e" d="M567.08,199.5c0-3.13-1.42-5.84-6.26-5.84-2.99,0-5.55,.57-9.4,.57-4.56,0-10.68-.57-16.94-.57-25.06,0-37.87,25.91-37.87,55.81,0,16.37,4.41,22.92,15.66,22.92,14.81,0,31.61-24.49,31.61-35.45,0-2.85-1.71-4.7-4.98-4.7-4.41,0-5.69,2.42-6.69,10.82-1.14,9.4-3.84,13.1-8.97,13.1-6.69,0-10.11-4.27-10.11-24.77s5.27-26.76,13.24-26.76c10.96,0,28.76,8.12,28.76,22.92,0,17.8-15.38,28.9-15.38,37.16,0,5.12,2.14,6.55,7.12,6.55,2.56,0,5.69-.29,8.83-.43,4.27,0,8.97,.29,12.81,.29,2.42,0,4.27-2.85,4.27-5.27,0-6.41-9.68-24.63-9.68-42.42,0-6.98,3.99-19.93,3.99-23.92Z"/><path class="e" d="M653.07,205.48c0-10.82-4.41-13.1-10.54-13.1-11.82,0-17.23,10.25-29.18,10.25-9.54,0-15.66-8.68-28.19-8.68-2.99,0-4.98,1.57-4.98,4.98,0,7.12,13.52,18.93,13.52,32.17,0,9.68-12.96,24.49-12.96,34.31,0,3.99,1.99,5.98,4.84,5.98,3.84,0,5.27-.71,11.67-.71,3.84,0,7.4,.71,11.82,.71,3.7,0,5.41-2.42,5.41-4.98,0-8.4-12.81-22.49-12.81-42.14,0-7.69,3.84-14.24,12.81-14.24,14.52,0,25.63,6.83,25.63,14.38,0,10.39-11.53,17.79-11.53,33.6,0,9.25,6.26,13.52,18.08,13.52,9.68,0,13.38-1.14,13.38-4.98,0-4.13-12.81-13.81-12.81-32.46,0-11.82,5.84-20.22,5.84-28.62Z"/><path class="e" d="M737.49,205.48c0-10.82-4.41-13.1-10.54-13.1-11.82,0-17.23,10.25-29.18,10.25-9.54,0-15.66-8.68-28.19-8.68-2.99,0-4.98,1.57-4.98,4.98,0,7.12,13.52,18.93,13.52,32.17,0,9.68-12.96,24.49-12.96,34.31,0,3.99,1.99,5.98,4.84,5.98,3.84,0,5.27-.71,11.67-.71,3.84,0,7.4,.71,11.82,.71,3.7,0,5.41-2.42,5.41-4.98,0-8.4-12.81-22.49-12.81-42.14,0-7.69,3.84-14.24,12.81-14.24,14.52,0,25.63,6.83,25.63,14.38,0,10.39-11.53,17.79-11.53,33.6,0,9.25,6.26,13.52,18.08,13.52,9.68,0,13.38-1.14,13.38-4.98,0-4.13-12.81-13.81-12.81-32.46,0-11.82,5.84-20.22,5.84-28.62Z"/><path class="e" d="M777.92,197.8c0-3.56-1.42-5.55-5.27-5.55-2.71,0-5.41,1.57-14.52,2.42-10.39,1-11.53,1.85-11.53,5.27,0,6.26,16.8,20.64,16.8,35.59,0,12.1-14.66,24.63-14.66,31.32,0,2.99,1.57,4.27,5.41,4.27,2.14,0,8.83-.43,14.24-.43,4.13,0,9.25,.43,10.54,.43,2.99,0,4.56-1.57,4.56-5.12,0-5.27-12.81-17.94-12.81-30.47,0-19.08,7.26-32.89,7.26-37.73Z"/><path class="e" d="M779.34,171.03c0-2.56-1.42-4.13-4.84-4.13-1.71,0-4.27,.14-7.55,.14-7.97,0-11.67-1.85-13.81-1.85-3.42,0-4.7,1.85-4.7,3.84,0,5.69,7.69,15.38,14.52,15.38s16.37-6.69,16.37-13.38Z"/><path class="e" d="M862.62,199.5c0-3.13-1.42-5.84-6.26-5.84-2.99,0-5.55,.57-9.4,.57-4.56,0-10.68-.57-16.94-.57-25.06,0-37.87,25.91-37.87,55.81,0,16.37,4.41,22.92,15.66,22.92,14.81,0,31.61-24.49,31.61-35.45,0-2.85-1.71-4.7-4.98-4.7-4.41,0-5.69,2.42-6.69,10.82-1.14,9.4-3.84,13.1-8.97,13.1-6.69,0-10.11-4.27-10.11-24.77s5.27-26.76,13.24-26.76c10.96,0,28.76,8.12,28.76,22.92,0,17.8-15.38,28.9-15.38,37.16,0,5.12,2.14,6.55,7.12,6.55,2.56,0,5.69-.29,8.83-.43,4.27,0,8.97,.29,12.81,.29,2.42,0,4.27-2.85,4.27-5.27,0-6.41-9.68-24.63-9.68-42.42,0-6.98,3.99-19.93,3.99-23.92Z"/><path class="e" d="M261.15,134.77c3.42,0,9.82-.71,15.09-.71,7.54,0,17.51,.57,18.79,.57,1.99,0,3.56-1.71,3.56-3.99,0-7.83-21.78-16.66-21.78-43.28s10.39-30.47,19.5-30.47c16.37,0,27.33,14.09,27.33,29.9,0,8.11-3.13,11.53-9.4,11.53-4.27,0-8.26-2.42-8.26-8.83,0-4.27,1-5.98,1-8.12,0-2.42-1.28-3.27-3.42-3.27-7.97,0-15.95,5.84-15.95,16.66s7.26,15.94,17.37,15.94c19.79,0,30.75-17.37,30.75-40.43,0-21.35-6.83-28.04-15.94-28.04-6.41,0-16.8,4.7-27.33,4.7-9.97,0-22.35-3.56-29.9-3.56-3.7,0-5.13,1.85-5.13,4.56,0,5.84,12.81,16.8,12.81,36.73s-12.96,39.72-12.96,46.27c0,2.99,1.85,3.84,3.84,3.84Z"/><path class="e" d="M382.73,118.26c-25.91,0-30.18-13.95-36.16-13.95-2.28,0-3.99,1.28-3.99,4.84,0,17.23,7.83,26.48,29.19,26.48,15.94,0,30.47-11.82,30.47-25.63,0-22.49-42.71-24.06-42.71-39.29,0-3.99,2.71-6.55,6.69-6.55,10.68,0,18.65,15.52,24.34,15.52,3.7,0,4.98-2.42,6.69-8.97,1.85-7.12,5.27-7.83,5.27-10.54,0-1.99-.71-3.7-3.42-3.7-2.14,0-5.84,.71-9.4,.71-8.4,0-15.95-.57-22.64-.57-15.66,0-23.92,8.97-23.92,21.07,0,28.33,50.82,22.64,50.82,34.17,0,3.56-2.13,6.41-11.25,6.41Z"/><path class="e" d="M465.16,121.53c0-29.47,10.82-52.96,10.82-60.08,0-3.27-1.57-4.56-3.7-4.56-1.14,0-4.98,.57-8.68,.57-5.12,0-9.25-.43-12.24-.43s-4.84,1-4.84,4.56c0,6.26,12.96,21.92,12.96,34.45,0,11.25-14.52,15.66-29.47,15.66-5.98,0-9.97-2.14-9.97-5.98,0-8.83,15.95-21.78,15.95-36.59,0-8.4-7.69-12.24-21.64-12.24-6.55,0-9.11,1.28-9.11,4.13,0,5.27,8.12,5.69,8.12,22.78,0,5.7-.71,14.09-.71,23.78,0,13.95,6.55,18.93,20.64,18.93,10.54,0,17.65-2.71,20.36-2.71,2.85,0,3.7,1.57,3.7,3.84,0,10.54-37.3,9.11-37.3,19.08,0,2.42,1.57,4.13,5.7,4.13,5.41,0,11.39-.28,16.94-.28,4.41,0,8.83,.28,13.24,.28,7.12,0,9.25-1.85,9.25-29.33Z"/><path class="e" d="M518.11,135.63c22.07,0,29.9-16.09,29.9-28.76,0-2.42-1-3.56-2.99-3.56-4.84,0-8.54,13.53-25.34,13.53-10.68,0-22.64-4.98-22.64-26.05,0-14.81,3.27-19.65,10.25-19.65,14.09,0,22.78,8.97,29.75,8.97,4.98,0,10.68-10.39,10.68-18.93,0-3.7-2.56-4.84-4.56-4.84-2.56,0-7.12,1.42-12.24,1.42-7.97,0-14.66-.85-19.22-.85-9.25,0-30.32,22.64-30.32,45.27,0,17.23,9.25,33.46,36.73,33.46Z"/><path class="e" d="M588.86,129.36c0-5.84-13.1-19.93-13.1-33.6,0-16.51,6.26-21.64,19.08-21.64,8.97,0,18.79,5.12,18.79,12.95,0,8.97-12.24,19.08-12.24,34.03,0,9.25,6.26,13.52,17.8,13.52,9.68,0,13.38-1.14,13.38-4.84,0-4.98-12.81-15.38-12.81-29.61,0-16.37,5.84-26.05,5.84-34.88,0-6.98-3.42-9.82-10.54-9.82-13.95,0-30.61,15.09-36.3,15.09-1.14,0-1.99-.57-1.99-2.14,0-8.54,6.41-22.35,6.41-26.91,0-1.99-1-3.84-3.99-3.84-3.99,0-6.41,3.84-13.95,5.69-11.39,2.99-12.1,4.7-12.1,8.26,0,6.69,15.38,21.64,15.38,44.13,0,12.24-14.66,26.62-14.66,32.46,0,3.7,2.14,5.98,5.84,5.98,2.85,0,8.97-.43,13.81-.43,4.41,0,9.82,.43,11.1,.43,2.85,0,4.27-1.42,4.27-4.84Z"/><path class="e" d="M675.7,135.63c20.64,0,28.47-15.95,28.47-22.78,0-3.7-.85-5.55-3.13-5.55-5.55,0-6.55,10.82-23.21,10.82-13.81,0-25.06-7.12-25.06-37.58,0-9.96,3.27-13.24,10.82-13.24,12.39,0,25.2,10.82,25.2,20.64,0,3.13-2.56,4.27-5.12,4.27-6.98,0-12.81-2.14-15.09-2.14-2.71,0-4.84,1.57-4.84,4.84,0,4.27,2.99,5.84,5.84,5.84,9.68,0,19.36-3.13,26.91-3.13s9.11-3.56,9.11-8.54c0-7.12-3.7-18.36-9.11-28.47-1.99-3.84-4.13-4.27-7.26-4.27s-8.54,1.42-14.52,1.42c-6.41,0-11.67-.85-16.09-.85-7.55,0-20.93,22.64-20.93,45.27,0,17.23,9.25,33.46,38.01,33.46Z"/><path class="e" d="M785.89,37.68c-3.84,0-11.25,5.84-20.79,7.26-2.56,.43-4.84,1.42-4.84,4.84,0,6.83,14.24,22.21,14.24,43.56,0,10.54-5.12,29.61-17.23,29.61-13.1,0-24.77-9.82-24.77-38.15,0-10.25,3.42-13.67,8.11-13.67,3.13,0,12.24,3.99,15.95,3.99,2.85,.43,4.84-1,4.84-3.99,0-4.84-9.4-14.95-15.52-14.95-12.81,0-30.61,22.92-30.61,50.68,0,20.93,7.55,28.05,15.38,28.05,8.54,0,16.23-3.56,24.77-3.56,5.69,0,25.48,3.13,29.61,3.13,3.56,0,4.84-1.85,4.84-5.41,0-4.7-7.4-24.49-7.4-42.28,0-15.52,8.12-38.72,8.12-43.99,0-2.71-1.14-5.12-4.7-5.12Z"/><path class="e" d="M837,135.63c20.64,0,28.47-15.95,28.47-22.78,0-3.7-.85-5.55-3.13-5.55-5.55,0-6.55,10.82-23.21,10.82-13.81,0-25.06-7.12-25.06-37.58,0-9.96,3.27-13.24,10.82-13.24,12.39,0,25.2,10.82,25.2,20.64,0,3.13-2.56,4.27-5.12,4.27-6.98,0-12.81-2.14-15.09-2.14-2.71,0-4.84,1.57-4.84,4.84,0,4.27,2.99,5.84,5.84,5.84,9.68,0,19.36-3.13,26.91-3.13s9.11-3.56,9.11-8.54c0-7.12-3.7-18.36-9.11-28.47-1.99-3.84-4.13-4.27-7.26-4.27s-8.54,1.42-14.52,1.42c-6.41,0-11.67-.85-16.09-.85-7.55,0-20.93,22.64-20.93,45.27,0,17.23,9.25,33.46,38.01,33.46Z"/><path class="e" d="M902.48,42.52c0-2.42-1.28-4.84-4.56-4.84-2.56,0-7.83,3.84-16.66,6.12-9.11,2.42-9.68,4.41-9.68,7.83,0,4.98,15.52,17.37,15.52,36.87,0,22.64-14.66,32.32-14.66,39.58,0,3.7,2.42,6.12,6.26,6.12,2.85,0,8.68-.43,13.38-.43,3.99,0,8.97,.43,10.11,.43,3.56,0,5.41-1.42,5.41-4.7,0-5.84-13.24-19.93-13.24-33.74,0-27.05,8.11-46.55,8.11-53.24Z"/><path class="e" d="M928.68,47.51c6.55,0,16.37-6.69,16.37-13.38,0-2.56-1.42-4.13-4.84-4.13-1.71,0-4.27,.14-7.55,.14-7.97,0-11.67-1.85-13.81-1.85-3.42,0-4.7,1.85-4.7,3.84,0,5.69,7.69,15.38,14.52,15.38Z"/><path class="e" d="M943.62,60.89c0-3.56-1.42-5.55-5.27-5.55-2.71,0-5.41,1.57-14.52,2.42-10.39,1-11.53,1.85-11.53,5.27,0,6.26,16.8,20.64,16.8,35.59,0,12.1-14.66,24.63-14.66,31.32,0,2.99,1.57,4.27,5.41,4.27,2.14,0,8.83-.43,14.24-.43,4.13,0,9.25,.43,10.54,.43,2.99,0,4.56-1.57,4.56-5.12,0-5.27-12.81-17.94-12.81-30.47,0-19.08,7.26-32.89,7.26-37.73Z"/><path class="e" d="M1024.34,86.51c0-6.98,3.99-19.93,3.99-23.92,0-3.13-1.42-5.84-6.26-5.84-2.99,0-5.55,.57-9.4,.57-4.56,0-10.68-.57-16.94-.57-25.06,0-37.87,25.91-37.87,55.81,0,16.37,4.41,22.92,15.66,22.92,14.81,0,31.61-24.49,31.61-35.45,0-2.85-1.71-4.7-4.98-4.7-4.41,0-5.69,2.42-6.69,10.82-1.14,9.4-3.84,13.1-8.97,13.1-6.69,0-10.11-4.27-10.11-24.77s5.27-26.76,13.24-26.76c10.96,0,28.76,8.12,28.76,22.92,0,17.8-15.38,28.9-15.38,37.16,0,5.12,2.14,6.55,7.12,6.55,2.56,0,5.69-.29,8.83-.43,4.27,0,8.97,.29,12.81,.29,2.42,0,4.27-2.85,4.27-5.27,0-6.41-9.68-24.63-9.68-42.42Z"/></g></g></g></g></svg>