<?xml version="1.0" encoding="UTF-8"?><svg xmlns="http://www.w3.org/2000/svg" viewBox="0 0 174.84 255.55"><defs><style>.d{fill:#fff7e7;}.e{fill:#c68225;}</style></defs><g id="a"/><g id="b"><g id="c"><g><path class="d" d="M174.84,3.59V252.05c0,1.93-1.57,3.5-3.5,3.5H17.56c-9.68,0-17.56-7.9-17.56-17.6V17.59C0,7.89,7.88,0,17.56,0c.59,0,1.17,.03,1.74,.09H171.34c1.93,0,3.5,1.57,3.5,3.5Z"/><g><path class="e" d="M143.01,80.33c-4.13-1.64-8.2-2.9-12.06-4.5-2.73-1.22-5.39-2.17-7.23-4.46-4.33-5.85-6.52-14.76-14.02-18.1-8.32-4.09-12.65-.91-18.89,4.59-4.79,4.15-9.9,7.81-16.1,9.07-8.41,1.61-17.31,.68-25.55,3.47-3.51,1.49-10.4,5.1-13.29,9.12-.38,.29-.74,.6-1.09,.94-3.04,3.26-2.25,8.16,.94,10.86,9.57,8.05,31.15,10.37,43.5,11.01,.29,.03,.36-.44,.06-.49-10.64-2.6-21.34-5.04-31.45-9.1-13.6-5.39-13.1-11.23,1.86-11.19,8.8,.1,17.95,1.78,26.52,4.24,5.22,1.67,10.63,3.23,15.9,4.69,17.77,4.79,35.66,9.54,53.98,11.67,.48,.04,.98,.08,1.47,.12-12.07,3.5-32.83,3.4-40.07,3.65-.3,0-.34,.45-.04,.5,8.53,1.33,17.16,1.96,25.86,1.83,6.6-.17,13.37-.6,19.73-2.89,3.72-1.34,8.08-4.18,8.21-8.65-.31-7.12-12.39-13.86-18.24-16.38Zm6.81,21.2c-1.22-.14-2.44-.32-3.61-.43-10.86-1.64-21.5-4.55-32.09-7.49-10.58-2.95-21.12-6.15-31.54-9.64-10.57-3.83-21.48-6.67-32.76-7.37-3.9-.09-8.25-.12-11.87,1.63,3.35-3.01,8.72-5.53,11.65-6.67,8.23-2.41,17.03-1.14,25.5-2.46,6.63-1.03,12.52-4.93,17.51-9.04,5.45-4.38,8.68-7.48,15.55-3.75,8.08,4.06,8.14,14.92,15.02,20.24,5.54,3.78,12.07,5.65,17.91,8.31,3.45,1.46,15.11,8.51,15.01,12.19-.9,1.88-3.18,3.33-6.28,4.48Z"/><path class="e" d="M102.46,116.39c.14-2.49,.93-4.91,1.51-7.38,.9-3.41,1.83-6.83,2.77-10.24,.09-.3-.37-.43-.47-.16-1.36,3.25-2.68,6.51-3.9,9.81-1.22,3.3-2.51,6.71-2.55,10.27-.18,7.08,1.12,14.05,1.97,21.03,.77,7.99,4.03,24.88-5.17,28.71-13.29,5.91-19.66,1.16-18.02-13.22,1.06-6.91,3.66-13.52,5.92-20.12,2.24-6.66,4.93-13.33,5.28-20.45,.09-6.94-.7-14.24,2.96-20.47,.16-.28-.26-.51-.43-.26-2.09,2.96-3.59,6.32-4.14,10.09-.56,3.59-.64,7.19-1.04,10.56-.86,6.55-3.93,12.95-6.35,19.22-4.03,10.38-9.6,21.71-6.19,33.22,1.56,5.26,6.18,8.87,11.96,8.85,5.8-.02,13.73-2.44,17.38-7.14,7.09-10.03,1.56-28.59-.19-39.84-.77-4.23-1.47-8.31-1.33-12.47Z"/><path class="e" d="M171.34,.09H19.3c-.57-.06-1.15-.09-1.74-.09C7.88,0,0,7.89,0,17.59V237.95c0,9.7,7.88,17.6,17.56,17.6H171.34c1.93,0,3.5-1.57,3.5-3.5V3.59c0-1.93-1.57-3.5-3.5-3.5ZM7,17.59c0-4.61,2.95-8.55,7.06-10V220.71c-.61,.13-1.21,.29-1.8,.48-.19,.06-.38,.14-.56,.2-.4,.14-.79,.29-1.17,.46-.21,.09-.42,.2-.63,.3-.34,.17-.68,.34-1.01,.53-.21,.12-.42,.25-.62,.38-.32,.2-.62,.4-.92,.62-.12,.08-.24,.15-.35,.24V17.59ZM167.84,248.55H17.56c-5.79,0-10.52-4.71-10.56-10.51v-.16c.01-1.09,.18-2.14,.49-3.12,1.36-4.29,5.37-7.4,10.07-7.4H167.84v21.19Zm0-28.19H21.06V7.09H167.84V220.36Z"/></g></g></g></g></svg>