<?xml version="1.0" encoding="UTF-8"?><svg xmlns="http://www.w3.org/2000/svg" viewBox="0 0 119.67 129.2"><defs><style>.d{fill:#ffc6ff;}.e{fill:#c68225;}</style></defs><g id="a"/><g id="b"><g id="c"><g><g><path class="d" d="M60.02,128.2c-9.5,0-17.24-7.73-17.24-17.24v-1h34.47v1c0,9.5-7.73,17.24-17.24,17.24Z"/><path class="e" d="M76.26,110.96c0,8.97-7.27,16.24-16.24,16.24s-16.24-7.27-16.24-16.24h32.47m2-2H41.79v2c0,10.06,8.18,18.24,18.24,18.24s18.24-8.18,18.24-18.24v-2h0Z"/></g><g><path class="d" d="M7.16,106.63c-2.96,0-6.16-1.97-6.16-5.15,0-2.33,0-4.74,4.12-6.44,3.5-1.44,7.03-3.9,9.12-12.04,1.82-7.09,3.32-24.61,3.9-32.11l.02-.28c.21-2.71,.33-4.42,.33-4.42,2.18-17.63,10.41-28.64,25.88-34.66,2-6.23,8.28-10.53,15.47-10.53s13.47,4.31,15.47,10.53c15.47,6.03,23.7,17.03,25.87,34.61,0,.06,.12,1.76,.33,4.46l.02,.22h0c.57,7.36,2.08,25.06,3.91,32.19,2.09,8.14,5.62,10.6,9.12,12.04,4.12,1.7,4.12,4.11,4.12,6.44,0,3.18-3.2,5.15-6.16,5.15H7.16Z"/><path class="e" d="M59.84,2c7.06,0,12.99,4.37,14.65,10.29,16.91,6.42,23.77,18.41,25.7,33.97,0,0,.11,1.71,.33,4.43,0,0,0,0,0,.01,.63,8.17,2.12,25.42,3.95,32.55,2.14,8.33,5.76,11.09,9.71,12.72,3.51,1.44,3.51,3.29,3.51,5.52,0,2.62-2.76,4.15-5.16,4.15H7.16c-2.4,0-5.16-1.53-5.16-4.15,0-2.22,0-4.07,3.51-5.52,3.95-1.63,7.57-4.38,9.71-12.72,1.83-7.13,3.32-24.37,3.95-32.55,0,0,0,0,0-.01,.21-2.72,.33-4.43,.33-4.43,1.93-15.56,8.79-27.55,25.7-33.97,1.66-5.92,7.59-10.29,14.65-10.29m0-2c-7.45,0-13.98,4.38-16.26,10.77-15.57,6.21-23.86,17.43-26.07,35.24v.11s-.12,1.66-.33,4.29v.19l-.05,.49h0c-.59,7.63-2.07,24.74-3.85,31.66-2.08,8.1-5.49,10.11-8.53,11.36-4.74,1.95-4.74,5.08-4.74,7.36,0,3.8,3.72,6.15,7.16,6.15H112.51c3.44,0,7.16-2.35,7.16-6.15,0-2.28,0-5.41-4.74-7.36-3.04-1.25-6.45-3.26-8.53-11.36-1.78-6.92-3.26-24.04-3.85-31.66h0l-.04-.48v-.12l-.02-.07c-.2-2.63-.31-4.29-.32-4.29v-.11c-2.22-17.81-10.51-29.04-26.08-35.24-2.28-6.39-8.82-10.77-16.26-10.77h0Z"/></g></g></g></g></svg>