<?xml version="1.0" encoding="UTF-8"?><svg xmlns="http://www.w3.org/2000/svg" viewBox="0 0 125.67 135.2"><defs><style>.d{fill:#ffc6ff;}.e{fill:#c68225;}</style></defs><g id="a"/><g id="b"><g id="c"><g><g><path class="d" d="M63.02,132.7c-10.33,0-18.74-8.4-18.74-18.74v-2.5h37.47v2.5c0,10.33-8.41,18.74-18.74,18.74Z"/><path class="e" d="M79.26,113.96c0,8.97-7.27,16.24-16.24,16.24s-16.24-7.27-16.24-16.24h32.47m5-5H41.79v5c0,11.71,9.53,21.24,21.24,21.24s21.24-9.53,21.24-21.24v-5h0Z"/></g><g><path class="d" d="M10.16,111.13c-3.68,0-7.66-2.54-7.66-6.65,0-2.43,0-5.75,5.05-7.83,2.93-1.21,6.22-3.15,8.24-11.02,1.76-6.85,3.23-23.77,3.83-31.44l.04-.6v-.18l.02-.09c.2-2.59,.31-4.22,.31-4.23v-.14c2.23-17.93,10.56-29.26,26.18-35.56,2.42-6.47,9.08-10.89,16.66-10.89s14.24,4.42,16.66,10.89c15.62,6.3,23.95,17.63,26.17,35.56v.14s.12,1.68,.33,4.33v.17l.04,.42c.59,7.59,2.07,24.73,3.84,31.63,2.02,7.88,5.31,9.82,8.24,11.03,5.05,2.08,5.05,5.4,5.05,7.83,0,4.11-3.98,6.65-7.66,6.65H10.16Z"/><path class="e" d="M62.84,5c7.06,0,12.99,4.37,14.65,10.29,16.91,6.42,23.77,18.41,25.7,33.97,0,0,.11,1.71,.33,4.43,0,0,0,0,0,.01,.63,8.17,2.12,25.42,3.95,32.55,2.14,8.33,5.76,11.09,9.71,12.72,3.51,1.44,3.51,3.29,3.51,5.52,0,2.62-2.76,4.15-5.16,4.15H10.16c-2.4,0-5.16-1.53-5.16-4.15,0-2.22,0-4.07,3.51-5.52,3.95-1.63,7.57-4.38,9.71-12.72,1.83-7.13,3.32-24.37,3.95-32.55,0,0,0,0,0-.01,.21-2.72,.33-4.43,.33-4.43,1.93-15.56,8.79-27.55,25.7-33.97,1.66-5.92,7.59-10.29,14.65-10.29m0-5c-8.22,0-15.5,4.61-18.57,11.48-15.72,6.69-24.47,18.87-26.73,37.17l-.02,.14v.14s-.11,1.57-.31,4.05l-.04,.18v.33l-.09,1.21h0c-1.15,14.62-2.5,25.62-3.7,30.31-1.74,6.76-4.19,8.28-6.77,9.34-6.6,2.72-6.6,7.73-6.6,10.14,0,4.4,3.88,9.15,10.16,9.15H115.51c6.27,0,10.16-4.75,10.16-9.15,0-2.41,0-7.42-6.6-10.14-2.58-1.06-5.03-2.57-6.77-9.33-1.2-4.69-2.55-15.69-3.7-30.31h0l-.09-1.21v-.33l-.04-.18c-.19-2.49-.3-4.04-.3-4.05v-.14l-.03-.14c-2.27-18.29-11.02-30.48-26.73-37.17-3.07-6.87-10.36-11.48-18.57-11.48h0Z"/></g></g></g></g></svg>