<?xml version="1.0" encoding="UTF-8"?><svg xmlns="http://www.w3.org/2000/svg" viewBox="0 0 114.05 127.71"><defs><style>.d{fill:#ffadad;}.e{fill:#c68225;}</style></defs><g id="a"/><g id="b"><g id="c"><g><g><path class="d" d="M56.97,126.71c-.52,0-1.04-.02-1.56-.05-10.87-.74-19.76-9.48-20.68-20.33-.33-3.9,.35-7.81,1.98-11.32,1.34-2.9,2.24-5.58,2.74-8.2l.12-.62c1.09-5.9,1.7-11.94,1.83-17.96H12.22c-6.18,0-11.21-4.97-11.22-11.08v-.11C1,26.13,26.13,1,57.02,1h.53c30.23,.28,55.13,25.1,55.5,55.33v.67c0,3-1.16,5.81-3.29,7.93-2.12,2.12-4.94,3.28-7.94,3.28h-29.29c.12,6.02,.74,12.05,1.83,17.97l.12,.61c.53,2.74,1.4,5.41,2.62,7.92,1.46,3.03,2.2,6.28,2.2,9.67,0,12.31-10.01,22.32-22.32,22.32Z"/><path class="e" d="M57.02,2c.17,0,.35,0,.52,0,29.78,.27,54.14,24.56,54.51,54.34,0,.22,0,.44,0,.66,0,5.64-4.58,10.22-10.23,10.22h-30.3c.06,5.45,.53,11.94,1.86,19.15,.04,.21,.08,.42,.12,.62,.54,2.83,1.45,5.57,2.7,8.16,1.35,2.79,2.1,5.93,2.1,9.24,0,11.78-9.55,21.32-21.32,21.32-.49,0-.99-.02-1.49-.05-10.4-.71-18.87-9.03-19.75-19.42-.33-3.88,.39-7.57,1.89-10.81,1.25-2.7,2.26-5.51,2.82-8.43,.04-.21,.08-.42,.12-.63,1.33-7.21,1.8-13.7,1.86-19.15H12.22c-5.59,0-10.21-4.49-10.22-10.09v-.1c0-30.39,24.64-55.03,55.02-55.03m0-2C25.58,0,0,25.58,0,57.03v.1c.01,6.67,5.5,12.09,12.22,12.09h28.14c-.17,5.63-.77,11.26-1.78,16.78l-.12,.62c-.49,2.54-1.36,5.15-2.67,7.97-1.7,3.66-2.41,7.75-2.07,11.82,.96,11.34,10.25,20.47,21.61,21.25,.54,.04,1.09,.06,1.63,.06,12.86,0,23.32-10.46,23.32-23.32,0-3.54-.77-6.94-2.3-10.11-1.17-2.43-2.02-5.01-2.53-7.67l-.12-.61c-1.02-5.52-1.62-11.15-1.78-16.78h28.26c3.26,0,6.33-1.27,8.64-3.58,2.31-2.31,3.58-5.38,3.58-8.64,0-.23,0-.46,0-.69C113.67,25.55,88.33,.29,57.56,0h-.54Z"/></g><g><circle class="e" cx="53.16" cy="23.5" r="8.11"/><path class="d" d="M53.16,16.39c3.93,0,7.11,3.18,7.11,7.11s-3.18,7.11-7.11,7.11-7.11-3.18-7.11-7.11,3.18-7.11,7.11-7.11m0-2c-5.02,0-9.11,4.09-9.11,9.11s4.09,9.11,9.11,9.11,9.11-4.09,9.11-9.11-4.09-9.11-9.11-9.11h0Z"/></g><g><path class="e" d="M34.92,53.95c-6.69,0-12.13-5.44-12.13-12.13s5.44-12.13,12.13-12.13,12.13,5.44,12.13,12.13-5.44,12.13-12.13,12.13Z"/><path class="d" d="M34.92,30.69c6.15,0,11.13,4.98,11.13,11.13s-4.98,11.13-11.13,11.13-11.13-4.98-11.13-11.13,4.98-11.13,11.13-11.13m0-2c-7.24,0-13.13,5.89-13.13,13.13s5.89,13.13,13.13,13.13,13.13-5.89,13.13-13.13-5.89-13.13-13.13-13.13h0Z"/></g></g></g></g></svg>