<?xml version="1.0" encoding="UTF-8"?><svg xmlns="http://www.w3.org/2000/svg" viewBox="0 0 120.05 133.71"><defs><style>.d{fill:#ffadad;}.e{fill:#c68225;}</style></defs><g id="a"/><g id="b"><g id="c"><g><g><path class="d" d="M59.97,131.21c-.55,0-1.1-.02-1.66-.06-11.6-.79-21.09-10.12-22.07-21.7-.35-4.16,.38-8.33,2.11-12.07,1.29-2.78,2.15-5.35,2.63-7.85l.12-.62c.98-5.32,1.57-10.76,1.76-16.19H15.22c-7,0-12.71-5.64-12.72-12.58v-.11C2.5,28.31,28.3,2.5,60.02,2.5h.54c31.04,.29,56.6,25.77,56.98,56.81v.69c0,3.4-1.32,6.59-3.72,8.99-2.4,2.4-5.6,3.72-9,3.72h-27.75c.19,5.43,.78,10.86,1.76,16.19l.11,.6c.5,2.62,1.34,5.16,2.49,7.55,1.56,3.23,2.35,6.71,2.35,10.32,0,13.14-10.69,23.82-23.82,23.82Z"/><path class="e" d="M60.02,5c.17,0,.35,0,.52,0,29.78,.27,54.14,24.56,54.51,54.34,0,.22,0,.44,0,.66,0,5.64-4.58,10.22-10.23,10.22h-30.3c.06,5.45,.53,11.94,1.86,19.15,.04,.21,.08,.42,.12,.62,.54,2.83,1.45,5.57,2.7,8.16,1.35,2.79,2.1,5.93,2.1,9.24,0,11.78-9.55,21.32-21.32,21.32-.49,0-.99-.02-1.49-.05-10.4-.71-18.87-9.03-19.75-19.42-.33-3.88,.39-7.57,1.89-10.81,1.25-2.7,2.26-5.51,2.82-8.43,.04-.21,.08-.42,.12-.63,1.33-7.21,1.8-13.7,1.86-19.15H15.22c-5.59,0-10.21-4.49-10.22-10.09v-.1c0-30.39,24.64-55.03,55.02-55.03m0-5C26.93,0,0,26.93,0,60.03v.06H0v.06c.02,8.31,6.84,15.08,15.22,15.08h25.01c-.26,4.44-.79,8.88-1.6,13.24l-.11,.6c-.44,2.29-1.24,4.67-2.44,7.27-1.92,4.13-2.73,8.75-2.34,13.34,1.08,12.8,11.57,23.11,24.4,23.99,.61,.04,1.22,.06,1.83,.06,14.51,0,26.32-11.81,26.32-26.32,0-4-.87-7.83-2.59-11.41-1.06-2.2-1.83-4.53-2.29-6.93l-.11-.6c-.8-4.36-1.34-8.79-1.6-13.23h25.13c4.06,0,7.89-1.58,10.76-4.45,2.88-2.88,4.46-6.7,4.46-10.77,0-.24,0-.48,0-.72-.19-15.72-6.48-30.53-17.69-41.71C91.14,6.38,76.3,.15,60.58,0c-.19,0-.38,0-.56,0h0Z"/></g><g><circle class="e" cx="56.16" cy="26.5" r="9.61"/><path class="d" d="M56.16,19.39c3.93,0,7.11,3.18,7.11,7.11s-3.18,7.11-7.11,7.11-7.11-3.18-7.11-7.11,3.18-7.11,7.11-7.11m0-5c-6.68,0-12.11,5.43-12.11,12.11s5.43,12.11,12.11,12.11,12.11-5.43,12.11-12.11-5.43-12.11-12.11-12.11h0Z"/></g><g><path class="e" d="M37.92,58.45c-7.51,0-13.63-6.11-13.63-13.63s6.11-13.63,13.63-13.63,13.63,6.11,13.63,13.63-6.11,13.63-13.63,13.63Z"/><path class="d" d="M37.92,33.69c6.15,0,11.13,4.98,11.13,11.13s-4.98,11.13-11.13,11.13-11.13-4.98-11.13-11.13,4.98-11.13,11.13-11.13m0-5c-8.89,0-16.13,7.23-16.13,16.13s7.23,16.13,16.13,16.13,16.13-7.23,16.13-16.13-7.23-16.13-16.13-16.13h0Z"/></g></g></g></g></svg>