<?xml version="1.0" encoding="UTF-8"?><svg xmlns="http://www.w3.org/2000/svg" viewBox="0 0 92.4 129.2"><defs><style>.d,.e{fill:#9bf6ff;}.f{fill:#c68225;}.e{stroke:#c68225;stroke-miterlimit:10;stroke-width:2px;}</style></defs><g id="a"/><g id="b"><g id="c"><g><g><rect class="d" x="1" y="1" width="90.4" height="127.2" rx="14.24" ry="14.24"/><path class="f" d="M77.16,2c7.31,0,13.24,5.93,13.24,13.24V113.96c0,7.31-5.93,13.24-13.24,13.24H15.24c-7.31,0-13.24-5.93-13.24-13.24V15.24C2,7.93,7.93,2,15.24,2h61.93m0-2H15.24C6.83,0,0,6.83,0,15.24V113.96c0,8.4,6.83,15.24,15.24,15.24h61.93c8.4,0,15.24-6.83,15.24-15.24V15.24c0-8.4-6.83-15.24-15.24-15.24h0Z"/></g><line class="e" x1="14.98" y1="29.8" x2="77.42" y2="29.8"/><line class="e" x1="14.98" y1="47.36" x2="77.42" y2="47.36"/><line class="e" x1="14.98" y1="64.93" x2="77.42" y2="64.93"/><line class="e" x1="14.98" y1="82.49" x2="77.42" y2="82.49"/><line class="e" x1="14.98" y1="100.06" x2="58.27" y2="100.06"/></g></g></g></svg>