<?xml version="1.0" encoding="UTF-8"?><svg xmlns="http://www.w3.org/2000/svg" viewBox="0 0 98.4 135.2"><defs><style>.d{stroke:#c68225;stroke-miterlimit:10;stroke-width:5px;}.d,.e{fill:#9bf6ff;}.f{fill:#c68225;}</style></defs><g id="a"/><g id="b"><g id="c"><g><g><rect class="e" x="2.5" y="2.5" width="93.4" height="130.2" rx="15.74" ry="15.74"/><path class="f" d="M80.16,5c7.31,0,13.24,5.93,13.24,13.24V116.96c0,7.31-5.93,13.24-13.24,13.24H18.24c-7.31,0-13.24-5.93-13.24-13.24V18.24c0-7.31,5.93-13.24,13.24-13.24h61.93m0-5H18.24C8.18,0,0,8.18,0,18.24V116.96c0,10.06,8.18,18.24,18.24,18.24h61.93c10.05,0,18.24-8.18,18.24-18.24V18.24c0-10.05-8.18-18.24-18.24-18.24h0Z"/></g><line class="d" x1="17.98" y1="32.8" x2="80.42" y2="32.8"/><line class="d" x1="17.98" y1="50.36" x2="80.42" y2="50.36"/><line class="d" x1="17.98" y1="67.93" x2="80.42" y2="67.93"/><line class="d" x1="17.98" y1="85.49" x2="80.42" y2="85.49"/><line class="d" x1="17.98" y1="103.06" x2="61.27" y2="103.06"/></g></g></g></svg>