<?xml version="1.0" encoding="UTF-8"?><svg xmlns="http://www.w3.org/2000/svg" viewBox="0 0 105.79 120.9"><defs><style>.d{fill:#c68225;}</style></defs><g id="a"/><g id="b"><g id="c"><path class="d" d="M90.68,66.12v32.11c0,4.17-3.38,7.56-7.56,7.56H22.67c-4.17,0-7.56-3.38-7.56-7.56v-32.11c0-4.17-3.38-7.56-7.56-7.56s-7.56,3.38-7.56,7.56v32.11c0,12.52,10.15,22.67,22.67,22.67h60.45c12.52,0,22.67-10.15,22.67-22.67v-32.11c0-4.17-3.38-7.56-7.56-7.56s-7.56,3.38-7.56,7.56ZM47.56,2.21l-30.23,30.23c-2.95,2.95-2.95,7.74,0,10.69,2.95,2.95,7.73,2.95,10.69,0l17.32-17.32v49.76c0,4.18,3.38,7.56,7.56,7.56s7.56-3.38,7.56-7.56V25.81l17.33,17.33c2.95,2.95,7.73,2.95,10.69,0s2.95-7.73,0-10.69L58.24,2.23c-2.96-2.96-7.73-2.96-10.68-.01Z"/></g></g></svg>