<?xml version="1.0" encoding="UTF-8"?><svg xmlns="http://www.w3.org/2000/svg" viewBox="0 0 150.09 129.2"><defs><style>.d{fill:#ffd6a5;}.e{fill:#c68225;}</style></defs><g id="a"/><g id="b"><g id="c"><g><path class="d" d="M68.78,128.18l7.86-31.01-19.7-.02-7.86,31.01-23.7-.02,7.86-31.01-31.95-.03,5.83-23,31.95,.03,4.85-19.12-31.95-.03,5.83-23,31.95,.03L57.61,1l23.7,.02-7.86,31.01,19.7,.02L101.01,1.04l23.7,.02-7.86,31.01,31.95,.03-5.83,23-31.95-.03-4.85,19.12,31.95,.03-5.83,23-31.95-.03-7.86,31.01-23.7-.02Zm13.69-54.01l4.85-19.12-19.7-.02-4.85,19.12,19.7,.02Z"/><path class="e" d="M58.39,2l21.64,.02-7.86,31.01,21.77,.02,7.86-31.01,21.64,.02-7.86,31.01,31.95,.03-5.32,21-31.95-.03-5.36,21.12,31.95,.03-5.32,21-31.95-.03-7.86,31.01-21.64-.02,7.86-31.01-21.77-.02-7.86,31.01-21.64-.02,7.86-31.01-31.95-.03,5.32-21,31.95,.03,5.36-21.12-31.95-.03,5.32-21,31.95,.03L58.39,2m24.86,73.17l5.36-21.12-21.77-.02-5.36,21.12,21.77,.02M56.83,0l-.38,1.51-7.48,29.5-30.39-.03h-1.56l-.38,1.51-5.32,21-.63,2.49h2.57l29.38,.03-4.34,17.12-30.39-.03h-1.56l-.38,1.51L.63,95.61l-.63,2.49H2.57l29.38,.03-7.23,28.52-.63,2.49h2.57l21.64,.02h1.56l.38-1.51,7.48-29.5,17.64,.02-7.23,28.52-.63,2.49h2.57l21.64,.02h1.56l.38-1.51,7.48-29.5,30.39,.03h1.56l.38-1.51,5.32-21,.63-2.49h-2.57l-29.38-.03,4.34-17.12,30.39,.03h1.56l.38-1.51,5.32-21,.63-2.49h-2.57l-29.38-.03,7.23-28.52,.63-2.49h-2.57l-21.64-.02h-1.56l-.38,1.51-7.48,29.5-17.64-.02,7.23-28.52L82.59,.02h-2.57L58.39,0h-1.56Zm7.22,73.15l4.34-17.12,17.64,.02-4.34,17.12-17.64-.02h0Z"/></g></g></g></svg>