<?xml version="1.0" encoding="UTF-8"?><svg xmlns="http://www.w3.org/2000/svg" viewBox="0 0 157.8 135.21"><defs><style>.d{fill:#ffd6a5;}.e{fill:#c68225;}</style></defs><g id="a"/><g id="b"><g id="c"><g><path class="d" d="M70.71,132.68l7.86-31.01h-16.61l-7.86,31-26.8-.02,7.86-31.01-31.95-.03,6.59-26,31.95,.03,4.09-16.12-31.95-.03,6.59-26,31.95,.03L60.3,2.5l26.8,.02-7.86,31.01h16.61l7.86-30.99,26.8,.02-7.86,31.01,31.95,.03-6.59,26-31.95-.03-4.09,16.12,31.95,.03-6.59,26-31.95-.03-7.86,31.01-26.8-.02Zm14.45-57.01l4.09-16.12h-16.61l-4.09,16.11h16.61Z"/><path class="e" d="M62.24,5l21.64,.02-7.86,31.01,21.77,.02,7.86-31.01,21.64,.02-7.86,31.01,31.95,.03-5.32,21-31.95-.03-5.36,21.12,31.95,.03-5.32,21-31.95-.03-7.86,31.01-21.64-.02,7.86-31.01-21.77-.02-7.86,31.01-21.64-.02,7.86-31.01-31.95-.03,5.32-21,31.95,.03,5.36-21.12-31.95-.03,5.32-21,31.95,.03,7.86-31.01m24.86,73.17l5.36-21.12-21.77-.02-5.36,21.12,21.77,.02M58.35,0l-.96,3.77-6.9,27.23-28.06-.02h-3.89l-.96,3.77-5.32,21-1.58,6.22h6.42l25.53,.03-2.82,11.13-28.06-.02h-3.89l-.96,3.77L1.58,97.88l-1.58,6.22H6.42l25.53,.03-6.28,24.79-1.58,6.22h6.42l21.64,.02h3.89l.96-3.77,6.9-27.23h11.45l-6.28,24.8-1.58,6.22h6.42l21.64,.02h3.89l.96-3.77,6.9-27.23,28.06,.02h3.89l.96-3.77,5.32-21,1.58-6.22h-6.42l-25.53-.03,2.82-11.13,28.06,.02h3.89l.96-3.77,5.32-21,1.58-6.22h-6.42l-25.53-.03,6.28-24.79,1.58-6.22h-6.42l-21.64-.02h-3.89l-.96,3.77-6.9,27.23h-11.45l6.28-24.8L90.3,.03h-6.42L62.25,0h-3.89Zm13.41,73.16l2.82-11.13h11.45l-2.82,11.14h-11.45Z"/></g></g></g></svg>