<?xml version="1.0" encoding="UTF-8"?><svg xmlns="http://www.w3.org/2000/svg" viewBox="0 0 149.05 121.04"><defs><style>.d{fill:#c68225;}</style></defs><g id="a"/><g id="b"><g id="c"><path class="d" d="M149.05,14.33c-5.58,2.46-11.5,4.08-17.56,4.82,6.39-3.82,11.16-9.84,13.42-16.93-5.99,3.56-12.56,6.07-19.4,7.42-11.56-12.31-30.91-12.91-43.22-1.34-6.14,5.77-9.63,13.82-9.64,22.25,0,2.35,.27,4.69,.78,6.98-24.55-1.2-47.45-12.74-63.02-31.76-8.06,13.92-3.95,31.7,9.39,40.68-4.86-.15-9.61-1.46-13.86-3.82v.41c.01,14.55,10.27,27.07,24.53,29.95-4.5,1.21-9.22,1.39-13.8,.53,3.99,12.45,15.46,20.98,28.54,21.22-10.83,8.47-24.18,13.05-37.93,13.02-2.44,0-4.87-.15-7.29-.44,13.99,9.01,30.29,13.79,46.94,13.74,56.33,0,86.96-46.56,86.96-86.93v-3.97c5.95-4.33,11.07-9.68,15.15-15.8h0Z"/></g></g></svg>